# xmcd CD database file
#
# Track frame offsets:
#	187
#	30985
#	49642
#	71250
#	88852
#	108745
#	132670
#	157107
#
# Disc length: 2479 seconds
#
# Revision: 0
# Processed by: cddbd v1.5PL3 Copyright (c) Steve Scherf et al.
# Submitted via: CDex 1.50
#
DISCID=6a09ad08
DTITLE=松本英彦スーパー・サックス - BOLERO
DYEAR=1983
DGENRE=Jazz
TTITLE0=Poinciana
TTITLE1=La Samba D'Orphee
TTITLE2=The Breeze and I
TTITLE3=Begin the Beguine
TTITLE4=Corcovado
TTITLE5=La Contessa Scalza
TTITLE6=Dark Eyes
TTITLE7=Bolero
EXTD=YEAR: 1983
EXTT0=
EXTT1=
EXTT2=
EXTT3=
EXTT4=
EXTT5=
EXTT6=
EXTT7=
PLAYORDER=
